<?xml version="1.0" standalone="no"?>
<!DOCTYPE svg PUBLIC "-//W3C//DTD SVG 20010904//EN"
 "http://www.w3.org/TR/2001/REC-SVG-20010904/DTD/svg10.dtd">
<svg version="1.0" xmlns="http://www.w3.org/2000/svg"
 width="512.000000pt" height="512.000000pt" viewBox="0 0 512.000000 512.000000"
 preserveAspectRatio="xMidYMid meet">

<g transform="translate(0.000000,512.000000) scale(0.100000,-0.100000)"
fill="#000000" stroke="none">
<path d="M2325 5104 c-841 -102 -1521 -762 -1661 -1609 -75 -461 38 -936 392
-1645 460 -919 1179 -1813 1486 -1847 95 -11 227 69 410 245 516 499 1149
1526 1392 2257 104 313 142 533 132 760 -26 622 -337 1181 -850 1526 -389 262
-837 370 -1301 313z m537 -333 c568 -114 1038 -530 1217 -1079 56 -170 75
-297 75 -492 0 -152 -3 -192 -27 -300 -116 -546 -499 -1293 -1013 -1976 -215
-286 -443 -538 -528 -584 -35 -18 -55 -7 -164 95 -170 159 -436 496 -667 845
-444 669 -712 1265 -781 1730 -30 205 -4 464 67 683 191 586 718 1019 1331
1097 111 14 377 3 490 -19z"/>
<path d="M2455 3970 c-269 -42 -491 -200 -605 -434 -71 -143 -85 -204 -84
-361 0 -146 14 -213 69 -332 106 -231 309 -392 561 -449 119 -26 292 -16 409
23 216 74 375 212 470 408 65 133 79 197 79 350 0 105 -4 145 -22 208 -81 285
-311 509 -587 570 -93 21 -216 28 -290 17z m259 -342 c228 -75 364 -314 315
-550 -68 -321 -447 -483 -722 -308 -320 203 -293 674 48 836 119 57 234 64
359 22z"/>
</g>
</svg>
