travel-part2
<svg width="100" height="100" viewBox="0 0 100 100" fill="none" xmlns="http://www.w3.org/2000/svg">
<rect width="100" height="100" rx="16" fill="#F2785C"/>
<path d="M35.4167 69.7548C33.4828 69.7548 31.6281 68.957 30.2607 67.537C28.8932 66.1169 28.125 64.1909 28.125 62.1827C28.125 60.1744 28.8932 58.2484 30.2607 56.8284C31.6281 55.4084 33.4828 54.6106 35.4167 54.6106C37.3505 54.6106 39.2052 55.4084 40.5727 56.8284C41.9401 58.2484 42.7083 60.1744 42.7083 62.1827C42.7083 64.1909 41.9401 66.1169 40.5727 67.537C39.2052 68.957 37.3505 69.7548 35.4167 69.7548ZM35.4167 51.3654C32.654 51.3654 30.0045 52.5051 28.051 54.5337C26.0975 56.5623 25 59.3138 25 62.1827C25 65.0516 26.0975 67.803 28.051 69.8317C30.0045 71.8603 32.654 73 35.4167 73C38.1793 73 40.8289 71.8603 42.7824 69.8317C44.7359 67.803 45.8333 65.0516 45.8333 62.1827C45.8333 59.3138 44.7359 56.5623 42.7824 54.5337C40.8289 52.5051 38.1793 51.3654 35.4167 51.3654ZM55.8333 47.0385H64.5833V43.1442H57.9167L53.875 36.0697C53.2708 34.988 52.0833 34.274 50.8333 34.274C49.8542 34.274 48.9583 34.6851 48.3333 35.3558L40.625 43.3389C39.9792 44.0096 39.5833 44.875 39.5833 45.9567C39.5833 47.3197 40.2708 48.4663 41.3542 49.137L48.3333 53.5288V64.3462H52.0833V50.2837L47.3958 46.7139L52.2292 41.6298L55.8333 47.0385ZM64.5833 69.7548C62.6495 69.7548 60.7948 68.957 59.4273 67.537C58.0599 66.1169 57.2917 64.1909 57.2917 62.1827C57.2917 60.1744 58.0599 58.2484 59.4273 56.8284C60.7948 55.4084 62.6495 54.6106 64.5833 54.6106C66.5172 54.6106 68.3719 55.4084 69.7393 56.8284C71.1068 58.2484 71.875 60.1744 71.875 62.1827C71.875 64.1909 71.1068 66.1169 69.7393 67.537C68.3719 68.957 66.5172 69.7548 64.5833 69.7548ZM64.5833 51.3654C61.8207 51.3654 59.1711 52.5051 57.2176 54.5337C55.2641 56.5623 54.1667 59.3138 54.1667 62.1827C54.1667 65.0516 55.2641 67.803 57.2176 69.8317C59.1711 71.8603 61.8207 73 64.5833 73C65.9513 73 67.3058 72.7202 68.5696 72.1766C69.8334 71.633 70.9818 70.8362 71.949 69.8317C72.9163 68.8272 73.6836 67.6347 74.2071 66.3223C74.7306 65.0099 75 63.6032 75 62.1827C75 60.7621 74.7306 59.3555 74.2071 58.0431C73.6836 56.7307 72.9163 55.5382 71.949 54.5337C70.9818 53.5292 69.8334 52.7324 68.5696 52.1888C67.3058 51.6452 65.9513 51.3654 64.5833 51.3654ZM58.3333 35.7885C60.4167 35.7885 62.0833 34.0577 62.0833 31.8942C62.0833 29.7308 60.4167 28 58.3333 28C56.25 28 54.5833 29.7308 54.5833 31.8942C54.5833 34.0577 56.25 35.7885 58.3333 35.7885Z" fill="white"/>
<svg width="50" height="45" viewBox="0 0 50 45" fill="none" xmlns="http://www.w3.org/2000/svg">
<path d="M10.4167 41.7548C8.4828 41.7548 6.62813 40.957 5.26068 39.537C3.89323 38.1169 3.125 36.1909 3.125 34.1827C3.125 32.1744 3.89323 30.2484 5.26068 28.8284C6.62813 27.4084 8.4828 26.6106 10.4167 26.6106C12.3505 26.6106 14.2052 27.4084 15.5727 28.8284C16.9401 30.2484 17.7083 32.1744 17.7083 34.1827C17.7083 36.1909 16.9401 38.1169 15.5727 39.537C14.2052 40.957 12.3505 41.7548 10.4167 41.7548ZM10.4167 23.3654C7.65399 23.3654 5.00447 24.5051 3.05097 26.5337C1.09747 28.5623 0 31.3138 0 34.1827C0 37.0516 1.09747 39.803 3.05097 41.8317C5.00447 43.8603 7.65399 45 10.4167 45C13.1793 45 15.8289 43.8603 17.7824 41.8317C19.7359 39.803 20.8333 37.0516 20.8333 34.1827C20.8333 31.3138 19.7359 28.5623 17.7824 26.5337C15.8289 24.5051 13.1793 23.3654 10.4167 23.3654ZM30.8333 19.0385H39.5833V15.1442H32.9167L28.875 8.06971C28.2708 6.98798 27.0833 6.27404 25.8333 6.27404C24.8542 6.27404 23.9583 6.6851 23.3333 7.35577L15.625 15.3389C14.9792 16.0096 14.5833 16.875 14.5833 17.9567C14.5833 19.3197 15.2708 20.4663 16.3542 21.137L23.3333 25.5288V36.3462H27.0833V22.2837L22.3958 18.7139L27.2292 13.6298L30.8333 19.0385ZM39.5833 41.7548C37.6495 41.7548 35.7948 40.957 34.4273 39.537C33.0599 38.1169 32.2917 36.1909 32.2917 34.1827C32.2917 32.1744 33.0599 30.2484 34.4273 28.8284C35.7948 27.4084 37.6495 26.6106 39.5833 26.6106C41.5172 26.6106 43.3719 27.4084 44.7393 28.8284C46.1068 30.2484 46.875 32.1744 46.875 34.1827C46.875 36.1909 46.1068 38.1169 44.7393 39.537C43.3719 40.957 41.5172 41.7548 39.5833 41.7548ZM39.5833 23.3654C36.8207 23.3654 34.1711 24.5051 32.2176 26.5337C30.2641 28.5623 29.1667 31.3138 29.1667 34.1827C29.1667 37.0516 30.2641 39.803 32.2176 41.8317C34.1711 43.8603 36.8207 45 39.5833 45C40.9513 45 42.3058 44.7202 43.5696 44.1766C44.8334 43.633 45.9818 42.8362 46.949 41.8317C47.9163 40.8272 48.6836 39.6347 49.2071 38.3223C49.7306 37.0099 50 35.6032 50 34.1827C50 32.7621 49.7306 31.3555 49.2071 30.0431C48.6836 28.7307 47.9163 27.5382 46.949 26.5337C45.9818 25.5292 44.8334 24.7324 43.5696 24.1888C42.3058 23.6452 40.9513 23.3654 39.5833 23.3654ZM33.3333 7.78846C35.4167 7.78846 37.0833 6.05769 37.0833 3.89423C37.0833 1.73077 35.4167 0 33.3333 0C31.25 0 29.5833 1.73077 29.5833 3.89423C29.5833 6.05769 31.25 7.78846 33.3333 7.78846Z" fill="white"/>
travel
</svg>
