<svg width="50" height="45" viewBox="0 0 50 45" fill="none" xmlns="http://www.w3.org/2000/svg">
<path d="M26.5833 22.5314V35.8462H23.8333V25.5288V25.2527L23.5996 25.1057L16.6205 20.7138L16.6174 20.7119C15.6757 20.129 15.0833 19.1402 15.0833 17.9567C15.0833 17.0104 15.4248 16.2679 15.9847 15.6863C15.9848 15.6861 15.985 15.6859 15.9852 15.6858L23.693 7.70308L23.6931 7.70313L23.6991 7.69665C24.2315 7.12541 24.9957 6.77404 25.8333 6.77404C26.8984 6.77404 27.9208 7.38669 28.4385 8.31352L28.4384 8.31353L28.4409 8.31774L32.4825 15.3923L32.6265 15.6442H32.9167H39.0833V18.5385H31.101L27.6452 13.3525L27.2981 12.8316L26.8668 13.2853L22.0335 18.3694L21.6491 18.7738L22.0929 19.1117L26.5833 22.5314ZM4.90052 39.8838C6.36016 41.3996 8.34397 42.2548 10.4167 42.2548C12.4894 42.2548 14.4732 41.3996 15.9328 39.8838C17.3918 38.3687 18.2083 36.3176 18.2083 34.1827C18.2083 32.0478 17.3918 29.9967 15.9328 28.4816C14.4732 26.9658 12.4894 26.1106 10.4167 26.1106C8.34397 26.1106 6.36016 26.9658 4.90052 28.4816C3.4415 29.9967 2.625 32.0478 2.625 34.1827C2.625 36.3176 3.4415 38.3687 4.90052 39.8838ZM3.41113 26.8805C5.27245 24.9476 7.79282 23.8654 10.4167 23.8654C13.0405 23.8654 15.5609 24.9476 17.4222 26.8805C19.2841 28.8141 20.3333 31.4404 20.3333 34.1827C20.3333 36.925 19.2841 39.5513 17.4222 41.4849C15.5609 43.4178 13.0405 44.5 10.4167 44.5C7.79282 44.5 5.27245 43.4178 3.41113 41.4849C1.5492 39.5513 0.5 36.925 0.5 34.1827C0.5 31.4404 1.5492 28.8141 3.41113 26.8805ZM34.0672 39.8838C35.5268 41.3996 37.5106 42.2548 39.5833 42.2548C41.656 42.2548 43.6398 41.3996 45.0995 39.8838C46.5585 38.3687 47.375 36.3176 47.375 34.1827C47.375 32.0478 46.5585 29.9967 45.0995 28.4816C43.6398 26.9658 41.656 26.1106 39.5833 26.1106C37.5106 26.1106 35.5268 26.9658 34.0672 28.4816C32.6082 29.9967 31.7917 32.0478 31.7917 34.1827C31.7917 36.3176 32.6082 38.3687 34.0672 39.8838ZM32.5778 26.8805C34.4391 24.9476 36.9595 23.8654 39.5833 23.8654C40.8829 23.8654 42.1703 24.1312 43.372 24.6481C44.5739 25.1651 45.6671 25.9233 46.5889 26.8805C47.5107 27.8378 48.2428 28.9752 48.7427 30.2283C49.2425 31.4815 49.5 32.8252 49.5 34.1827C49.5 35.5401 49.2425 36.8839 48.7427 38.1371C48.2428 39.3902 47.5107 40.5276 46.5889 41.4849C45.6671 42.4421 44.5739 43.2003 43.372 43.7173C42.1703 44.2342 40.8829 44.5 39.5833 44.5C36.9595 44.5 34.4391 43.4178 32.5778 41.4849C30.7159 39.5513 29.6667 36.925 29.6667 34.1827C29.6667 31.4404 30.7159 28.8141 32.5778 26.8805ZM36.5833 3.89423C36.5833 5.7995 35.1229 7.28846 33.3333 7.28846C31.5438 7.28846 30.0833 5.7995 30.0833 3.89423C30.0833 1.98896 31.5438 0.5 33.3333 0.5C35.1229 0.5 36.5833 1.98896 36.5833 3.89423Z" fill="#0D606F" stroke="black"/>
</svg>
