travel-part2
<svg width="100" height="100" viewBox="0 0 100 100" fill="none" xmlns="http://www.w3.org/2000/svg">
<rect width="100" height="100" rx="16" fill="#F2785C"/>
<path d="M73.9305 70.9545C73.9305 71.497 73.7174 72.0173 73.3379 72.4009C72.9585 72.7845 72.4439 73 71.9074 73H35.4904C34.9539 73 34.4393 72.7845 34.0598 72.4009C33.6804 72.0173 33.4673 71.497 33.4673 70.9545C33.4673 70.4121 33.6804 69.8918 34.0598 69.5082C34.4393 69.1246 34.9539 68.9091 35.4904 68.9091H71.9074C72.4439 68.9091 72.9585 69.1246 73.3379 69.5082C73.7174 69.8918 73.9305 70.4121 73.9305 70.9545ZM80 50.5V56.6364C80 57.1789 79.7868 57.6991 79.4074 58.0827C79.028 58.4663 78.5134 58.6818 77.9768 58.6818H33.4167C31.24 58.6894 29.1194 57.9834 27.3731 56.6696C25.6268 55.3558 24.3488 53.5051 23.7308 51.3949L20.165 39.4034C19.9879 38.7898 19.9528 38.1431 20.0624 37.5136C20.1721 36.884 20.4235 36.2884 20.7972 35.7728C21.1794 35.2642 21.6727 34.8518 22.2387 34.5679C22.8046 34.2841 23.4278 34.1364 24.0596 34.1364H28.4094C28.7047 34.137 28.9963 34.2038 29.263 34.332C29.5298 34.4603 29.7651 34.6467 29.952 34.8779L34.403 40.2727H38.7528L36.4767 33.3949C36.2718 32.7789 36.215 32.1225 36.3111 31.4799C36.4071 30.8373 36.6531 30.2271 37.0288 29.6998C37.4046 29.1725 37.8991 28.7432 38.4716 28.4477C39.0441 28.1521 39.6779 27.9986 40.3207 28H44.5947C44.8756 27.9985 45.1537 28.057 45.4108 28.1715C45.6679 28.2861 45.8983 28.4542 46.0867 28.6648L56.6072 40.2727H69.8842C72.5671 40.2727 75.1401 41.3503 77.0372 43.2682C78.9342 45.1862 80 47.7876 80 50.5ZM75.9537 50.5C75.947 48.8746 75.3054 47.3177 74.1686 46.1684C73.0318 45.0191 71.4919 44.3704 69.8842 44.3637H55.7221C55.4411 44.3651 55.163 44.3067 54.9059 44.1922C54.6488 44.0776 54.4185 43.9095 54.23 43.6989L43.7095 32.0909H40.3207L43.4819 41.679C43.5809 41.9865 43.6073 42.3132 43.559 42.6328C43.5107 42.9525 43.389 43.2563 43.2037 43.5199C43.0169 43.7837 42.77 43.9981 42.4838 44.1449C42.1977 44.2918 41.8808 44.3668 41.5599 44.3637H33.4673C33.1719 44.363 32.8804 44.2962 32.6136 44.168C32.3469 44.0398 32.1115 43.8534 31.9246 43.6222L27.4737 38.2273H24.0343L27.6001 50.2188C27.9719 51.4853 28.7396 52.5959 29.7883 53.3841C30.8369 54.1723 32.11 54.5958 33.4167 54.5909H75.9537V50.5Z" fill="white"/>
<svg width="60" height="45" viewBox="0 0 60 45" fill="none" xmlns="http://www.w3.org/2000/svg">
<path d="M53.9305 42.9545C53.9305 43.497 53.7174 44.0173 53.3379 44.4009C52.9585 44.7845 52.4439 45 51.9074 45H15.4904C14.9539 45 14.4393 44.7845 14.0598 44.4009C13.6804 44.0173 13.4673 43.497 13.4673 42.9545C13.4673 42.4121 13.6804 41.8918 14.0598 41.5082C14.4393 41.1246 14.9539 40.9091 15.4904 40.9091H51.9074C52.4439 40.9091 52.9585 41.1246 53.3379 41.5082C53.7174 41.8918 53.9305 42.4121 53.9305 42.9545ZM60 22.5V28.6364C60 29.1789 59.7868 29.6991 59.4074 30.0827C59.028 30.4663 58.5134 30.6818 57.9768 30.6818H13.4167C11.24 30.6894 9.11942 29.9834 7.37311 28.6696C5.6268 27.3558 4.34881 25.5051 3.7308 23.3949L0.164977 11.4034C-0.0121092 10.7898 -0.0471935 10.1431 0.0624379 9.51357C0.172069 8.88401 0.423478 8.28837 0.797215 7.77275C1.17939 7.26416 1.67273 6.85181 2.23866 6.56794C2.8046 6.28407 3.4278 6.13637 4.05956 6.13639H8.40936C8.70472 6.13701 8.99627 6.20383 9.26302 6.33204C9.52977 6.46025 9.76509 6.64667 9.95202 6.87786L14.403 12.2727H18.7528L16.4767 5.39491C16.2718 4.77893 16.215 4.12246 16.3111 3.47987C16.4071 2.83728 16.6531 2.22707 17.0288 1.69976C17.4046 1.17246 17.8991 0.743236 18.4716 0.447651C19.0441 0.152067 19.6779 -0.00137704 20.3207 2.79722e-05H24.5947C24.8756 -0.00146688 25.1537 0.0569681 25.4108 0.171517C25.6679 0.286065 25.8983 0.454151 26.0867 0.6648L36.6072 12.2727H49.8842C52.5671 12.2727 55.1401 13.3503 57.0372 15.2682C58.9342 17.1862 60 19.7876 60 22.5ZM55.9537 22.5C55.947 20.8746 55.3054 19.3177 54.1686 18.1684C53.0318 17.0191 51.4919 16.3704 49.8842 16.3637H35.7221C35.4411 16.3651 35.163 16.3067 34.9059 16.1922C34.6488 16.0776 34.4185 15.9095 34.23 15.6989L23.7095 4.09093H20.3207L23.4819 13.679C23.5809 13.9865 23.6073 14.3132 23.559 14.6328C23.5107 14.9525 23.389 15.2563 23.2037 15.5199C23.0169 15.7837 22.77 15.9981 22.4838 16.1449C22.1977 16.2918 21.8808 16.3668 21.5599 16.3637H13.4673C13.1719 16.363 12.8804 16.2962 12.6136 16.168C12.3469 16.0398 12.1115 15.8534 11.9246 15.6222L7.47365 10.2273H4.03428L7.6001 22.2188C7.97187 23.4853 8.73962 24.5959 9.78826 25.3841C10.8369 26.1723 12.11 26.5958 13.4167 26.5909H55.9537V22.5Z" fill="white"/>
travel
</svg>
