<svg width="52" height="52" viewBox="0 0 52 52" fill="none" xmlns="http://www.w3.org/2000/svg">
<path d="M3.11111 11.5556V12.0556H3.61111H48.3889H48.8889V11.5556V9.02778C48.8889 7.45858 48.2655 5.95365 47.1559 4.84406C46.0463 3.73447 44.5414 3.11111 42.9722 3.11111H9.02778C7.45858 3.11111 5.95365 3.73447 4.84406 4.84406C3.73447 5.95365 3.11111 7.45858 3.11111 9.02778V11.5556ZM48.8889 15.1667V14.6667H48.3889H3.61111H3.11111V15.1667V42.9722C3.11111 44.5414 3.73447 46.0463 4.84406 47.1559C5.95365 48.2655 7.45858 48.8889 9.02778 48.8889H42.9722C44.5414 48.8889 46.0463 48.2655 47.1559 47.1559C48.2655 46.0463 48.8889 44.5414 48.8889 42.9722V15.1667ZM15.9221 27.4777C15.3387 28.0611 14.5473 28.3889 13.7222 28.3889C12.8971 28.3889 12.1058 28.0611 11.5223 27.4777C10.9389 26.8942 10.6111 26.1029 10.6111 25.2778C10.6111 24.4527 10.9389 23.6613 11.5223 23.0779C12.1058 22.4944 12.8971 22.1667 13.7222 22.1667C14.5473 22.1667 15.3387 22.4944 15.9221 23.0779C16.5056 23.6613 16.8333 24.4527 16.8333 25.2778C16.8333 26.1029 16.5056 26.8942 15.9221 27.4777ZM29.1111 25.2778C29.1111 26.1029 28.7833 26.8942 28.1999 27.4777C27.6164 28.0611 26.8251 28.3889 26 28.3889C25.1749 28.3889 24.3836 28.0611 23.8001 27.4777C23.2167 26.8942 22.8889 26.1029 22.8889 25.2778C22.8889 24.4527 23.2167 23.6613 23.8001 23.0779C24.3836 22.4944 25.1749 22.1667 26 22.1667C26.8251 22.1667 27.6164 22.4944 28.1999 23.0779C28.7833 23.6613 29.1111 24.4527 29.1111 25.2778ZM40.4777 27.4777C39.8942 28.0611 39.1029 28.3889 38.2778 28.3889C37.4527 28.3889 36.6613 28.0611 36.0779 27.4777C35.4944 26.8942 35.1667 26.1029 35.1667 25.2778C35.1667 24.4527 35.4944 23.6613 36.0779 23.0779C36.6613 22.4944 37.4527 22.1667 38.2778 22.1667C39.1029 22.1667 39.8942 22.4944 40.4777 23.0779C41.0611 23.6613 41.3889 24.4527 41.3889 25.2778C41.3889 26.1029 41.0611 26.8942 40.4777 27.4777ZM16.8333 36.8333C16.8333 37.6585 16.5056 38.4498 15.9221 39.0332C15.3387 39.6167 14.5473 39.9444 13.7222 39.9444C12.8971 39.9444 12.1058 39.6167 11.5223 39.0332C10.9389 38.4498 10.6111 37.6585 10.6111 36.8333C10.6111 36.0082 10.9389 35.2169 11.5223 34.6334C12.1058 34.05 12.8971 33.7222 13.7222 33.7222C14.5473 33.7222 15.3387 34.05 15.9221 34.6334C16.5056 35.2169 16.8333 36.0082 16.8333 36.8333ZM28.1999 39.0332C27.6164 39.6167 26.8251 39.9444 26 39.9444C25.1749 39.9444 24.3836 39.6167 23.8001 39.0332C23.2167 38.4498 22.8889 37.6585 22.8889 36.8333C22.8889 36.0082 23.2167 35.2169 23.8001 34.6334C24.3836 34.05 25.1749 33.7222 26 33.7222C26.8251 33.7222 27.6164 34.05 28.1999 34.6334C28.7833 35.2169 29.1111 36.0082 29.1111 36.8333C29.1111 37.6585 28.7833 38.4498 28.1999 39.0332ZM0.5 9.02778C0.5 6.76607 1.39846 4.597 2.99773 2.99773C4.597 1.39846 6.76607 0.5 9.02778 0.5H42.9722C45.2339 0.5 47.403 1.39846 49.0023 2.99773C50.6015 4.597 51.5 6.76607 51.5 9.02778V42.9722C51.5 45.2339 50.6015 47.403 49.0023 49.0023C47.403 50.6015 45.2339 51.5 42.9722 51.5H9.02778C6.76607 51.5 4.597 50.6015 2.99773 49.0023C1.39846 47.403 0.5 45.2339 0.5 42.9722V9.02778Z" fill="#0D606F" stroke="black"/>
</svg>
