travel-part2
<svg width="100" height="100" viewBox="0 0 100 100" fill="none" xmlns="http://www.w3.org/2000/svg">
<rect width="100" height="100" rx="16" fill="#F2785C"/>
<path d="M37.7222 52.8889C38.6799 52.8889 39.5984 52.5084 40.2757 51.8312C40.9529 51.154 41.3333 50.2355 41.3333 49.2778C41.3333 48.3201 40.9529 47.4016 40.2757 46.7243C39.5984 46.0471 38.6799 45.6667 37.7222 45.6667C36.7645 45.6667 35.846 46.0471 35.1688 46.7243C34.4916 47.4016 34.1111 48.3201 34.1111 49.2778C34.1111 50.2355 34.4916 51.154 35.1688 51.8312C35.846 52.5084 36.7645 52.8889 37.7222 52.8889ZM53.6111 49.2778C53.6111 50.2355 53.2307 51.154 52.5534 51.8312C51.8762 52.5084 50.9577 52.8889 50 52.8889C49.0423 52.8889 48.1238 52.5084 47.4466 51.8312C46.7693 51.154 46.3889 50.2355 46.3889 49.2778C46.3889 48.3201 46.7693 47.4016 47.4466 46.7243C48.1238 46.0471 49.0423 45.6667 50 45.6667C50.9577 45.6667 51.8762 46.0471 52.5534 46.7243C53.2307 47.4016 53.6111 48.3201 53.6111 49.2778ZM62.2778 52.8889C63.2355 52.8889 64.154 52.5084 64.8312 51.8312C65.5084 51.154 65.8889 50.2355 65.8889 49.2778C65.8889 48.3201 65.5084 47.4016 64.8312 46.7243C64.154 46.0471 63.2355 45.6667 62.2778 45.6667C61.32 45.6667 60.4016 46.0471 59.7243 46.7243C59.0471 47.4016 58.6667 48.3201 58.6667 49.2778C58.6667 50.2355 59.0471 51.154 59.7243 51.8312C60.4016 52.5084 61.32 52.8889 62.2778 52.8889ZM41.3333 60.8333C41.3333 61.7911 40.9529 62.7096 40.2757 63.3868C39.5984 64.064 38.6799 64.4444 37.7222 64.4444C36.7645 64.4444 35.846 64.064 35.1688 63.3868C34.4916 62.7096 34.1111 61.7911 34.1111 60.8333C34.1111 59.8756 34.4916 58.9571 35.1688 58.2799C35.846 57.6027 36.7645 57.2222 37.7222 57.2222C38.6799 57.2222 39.5984 57.6027 40.2757 58.2799C40.9529 58.9571 41.3333 59.8756 41.3333 60.8333ZM50 64.4444C50.9577 64.4444 51.8762 64.064 52.5534 63.3868C53.2307 62.7096 53.6111 61.7911 53.6111 60.8333C53.6111 59.8756 53.2307 58.9571 52.5534 58.2799C51.8762 57.6027 50.9577 57.2222 50 57.2222C49.0423 57.2222 48.1238 57.6027 47.4466 58.2799C46.7693 58.9571 46.3889 59.8756 46.3889 60.8333C46.3889 61.7911 46.7693 62.7096 47.4466 63.3868C48.1238 64.064 49.0423 64.4444 50 64.4444ZM24 33.0278C24 30.6335 24.9511 28.3372 26.6442 26.6442C28.3372 24.9511 30.6335 24 33.0278 24H66.9722C69.3665 24 71.6628 24.9511 73.3558 26.6442C75.0489 28.3372 76 30.6335 76 33.0278V66.9722C76 69.3665 75.0489 71.6628 73.3558 73.3558C71.6628 75.0489 69.3665 76 66.9722 76H33.0278C30.6335 76 28.3372 75.0489 26.6442 73.3558C24.9511 71.6628 24 69.3665 24 66.9722V33.0278ZM33.0278 27.6111C31.5912 27.6111 30.2134 28.1818 29.1976 29.1976C28.1818 30.2134 27.6111 31.5912 27.6111 33.0278V35.5556H72.3889V33.0278C72.3889 31.5912 71.8182 30.2134 70.8024 29.1976C69.7866 28.1818 68.4088 27.6111 66.9722 27.6111H33.0278ZM27.6111 66.9722C27.6111 68.4088 28.1818 69.7866 29.1976 70.8024C30.2134 71.8182 31.5912 72.3889 33.0278 72.3889H66.9722C68.4088 72.3889 69.7866 71.8182 70.8024 70.8024C71.8182 69.7866 72.3889 68.4088 72.3889 66.9722V39.1667H27.6111V66.9722Z" fill="white"/>
<svg width="52" height="52" viewBox="0 0 52 52" fill="none" xmlns="http://www.w3.org/2000/svg">
<path d="M13.7222 28.8889C14.6799 28.8889 15.5984 28.5084 16.2757 27.8312C16.9529 27.154 17.3333 26.2355 17.3333 25.2778C17.3333 24.3201 16.9529 23.4016 16.2757 22.7243C15.5984 22.0471 14.6799 21.6667 13.7222 21.6667C12.7645 21.6667 11.846 22.0471 11.1688 22.7243C10.4916 23.4016 10.1111 24.3201 10.1111 25.2778C10.1111 26.2355 10.4916 27.154 11.1688 27.8312C11.846 28.5084 12.7645 28.8889 13.7222 28.8889ZM29.6111 25.2778C29.6111 26.2355 29.2307 27.154 28.5534 27.8312C27.8762 28.5084 26.9577 28.8889 26 28.8889C25.0423 28.8889 24.1238 28.5084 23.4466 27.8312C22.7693 27.154 22.3889 26.2355 22.3889 25.2778C22.3889 24.3201 22.7693 23.4016 23.4466 22.7243C24.1238 22.0471 25.0423 21.6667 26 21.6667C26.9577 21.6667 27.8762 22.0471 28.5534 22.7243C29.2307 23.4016 29.6111 24.3201 29.6111 25.2778ZM38.2778 28.8889C39.2355 28.8889 40.154 28.5084 40.8312 27.8312C41.5084 27.154 41.8889 26.2355 41.8889 25.2778C41.8889 24.3201 41.5084 23.4016 40.8312 22.7243C40.154 22.0471 39.2355 21.6667 38.2778 21.6667C37.32 21.6667 36.4016 22.0471 35.7243 22.7243C35.0471 23.4016 34.6667 24.3201 34.6667 25.2778C34.6667 26.2355 35.0471 27.154 35.7243 27.8312C36.4016 28.5084 37.32 28.8889 38.2778 28.8889ZM17.3333 36.8333C17.3333 37.7911 16.9529 38.7096 16.2757 39.3868C15.5984 40.064 14.6799 40.4444 13.7222 40.4444C12.7645 40.4444 11.846 40.064 11.1688 39.3868C10.4916 38.7096 10.1111 37.7911 10.1111 36.8333C10.1111 35.8756 10.4916 34.9571 11.1688 34.2799C11.846 33.6027 12.7645 33.2222 13.7222 33.2222C14.6799 33.2222 15.5984 33.6027 16.2757 34.2799C16.9529 34.9571 17.3333 35.8756 17.3333 36.8333ZM26 40.4444C26.9577 40.4444 27.8762 40.064 28.5534 39.3868C29.2307 38.7096 29.6111 37.7911 29.6111 36.8333C29.6111 35.8756 29.2307 34.9571 28.5534 34.2799C27.8762 33.6027 26.9577 33.2222 26 33.2222C25.0423 33.2222 24.1238 33.6027 23.4466 34.2799C22.7693 34.9571 22.3889 35.8756 22.3889 36.8333C22.3889 37.7911 22.7693 38.7096 23.4466 39.3868C24.1238 40.064 25.0423 40.4444 26 40.4444ZM0 9.02778C0 6.63346 0.951138 4.33721 2.64417 2.64417C4.33721 0.951138 6.63346 0 9.02778 0H42.9722C45.3665 0 47.6628 0.951138 49.3558 2.64417C51.0489 4.33721 52 6.63346 52 9.02778V42.9722C52 45.3665 51.0489 47.6628 49.3558 49.3558C47.6628 51.0489 45.3665 52 42.9722 52H9.02778C6.63346 52 4.33721 51.0489 2.64417 49.3558C0.951138 47.6628 0 45.3665 0 42.9722V9.02778ZM9.02778 3.61111C7.59119 3.61111 6.21344 4.18179 5.19762 5.19762C4.18179 6.21344 3.61111 7.59119 3.61111 9.02778V11.5556H48.3889V9.02778C48.3889 7.59119 47.8182 6.21344 46.8024 5.19762C45.7866 4.18179 44.4088 3.61111 42.9722 3.61111H9.02778ZM3.61111 42.9722C3.61111 44.4088 4.18179 45.7866 5.19762 46.8024C6.21344 47.8182 7.59119 48.3889 9.02778 48.3889H42.9722C44.4088 48.3889 45.7866 47.8182 46.8024 46.8024C47.8182 45.7866 48.3889 44.4088 48.3889 42.9722V15.1667H3.61111V42.9722Z" fill="white"/>
travel
</svg>
